<?xml version="1.0" standalone="no"?><!DOCTYPE svg PUBLIC "-//W3C//DTD SVG 1.1//EN" "http://www.w3.org/Graphics/SVG/1.1/DTD/svg11.dtd"><svg t="1633962526713" class="icon" viewBox="0 0 1138 1024" version="1.1" xmlns="http://www.w3.org/2000/svg" p-id="13322" width="17.78125" height="16" data-spm-anchor-id="a313x.7781069.0.i21" xmlns:xlink="http://www.w3.org/1999/xlink"><defs><style type="text/css"></style></defs><path d="M1080.883485 853.329066 855.490834 853.329066C855.490834 853.329066 854.040174 918.21052 854.040174 967.988049 854.040174 1000.869663 832.59317 1023.99488 798.204009 1023.99488 781.763202 1023.99488 767.99616 1023.99488 767.99616 1023.99488L570.507369 853.329066 56.888605 853.329066C25.457651 853.329066 0 827.842972 0 796.440462L0 56.888605C0 25.457651 25.457651 0 56.888605 0L1080.883485 0C1112.314438 0 1137.772089 25.457651 1137.772089 56.888605L1137.772089 796.440462C1137.772089 827.842972 1112.314438 853.329066 1080.883485 853.329066ZM1080.883485 56.888605 56.888605 56.888605 56.888605 796.440462 597.330346 796.440462 796.440462 967.106275 796.440462 796.440462 1080.883485 796.440462 1080.883485 56.888605ZM170.665814 540.413298 967.106275 540.413298 967.106275 597.301902 170.665814 597.301902 170.665814 540.413298ZM170.665814 398.220231 967.106275 398.220231 967.106275 455.108835 170.665814 455.108835 170.665814 398.220231ZM170.665814 255.99872 511.99744 255.99872 511.99744 312.887325 170.665814 312.887325 170.665814 255.99872Z" p-id="13323" fill="#2c2c2c"></path></svg>