<?xml version="1.0" standalone="no"?><!DOCTYPE svg PUBLIC "-//W3C//DTD SVG 1.1//EN" "http://www.w3.org/Graphics/SVG/1.1/DTD/svg11.dtd"><svg t="1631979453800" class="icon" viewBox="0 0 1291 1024" version="1.1" xmlns="http://www.w3.org/2000/svg" p-id="5276" width="20.171875" height="16" xmlns:xlink="http://www.w3.org/1999/xlink"><defs><style type="text/css"></style></defs><path d="M541.077692 773.854309c-14.577616 14.577616-34.272906 22.79691-54.58852 23.572315l-203.931547 3.101621c-23.572316-1.860972-41.871876-20.935938-44.508254-44.508254l3.101621-203.931546c0-20.315614 8.839618-40.010904 23.572316-54.588521L645.29214 116.931092l276.354384 276.354384-380.568832 380.568833z m0 0M955.76435 359.01257L679.565046 82.658186l52.107224-52.107224c41.251552-41.251552 108.556717-41.251552 149.96335 0l127.011359 127.011358c41.251552 41.251552 41.251552 108.556717 0 149.96335l-52.882629 51.4869z m0 0M1006.010601 1024h-688.559745c-43.88793 0-79.401484-35.513554-79.401485-79.401484 0-43.88793 35.513554-79.401484 79.401485-79.401484h687.939421c43.88793 0 79.401484 35.513554 79.401484 79.401484 0 43.88793-34.89323 79.401484-78.78116 79.401484z m0 0" p-id="5277" fill="#2c2c2c"></path></svg>